# xmcd
#
# Track frame offsets: 
#        150
#        15505
#        36892
#
# Disc length: 806 seconds
#
# Revision: 3
# Processed by: cddbd v1.5.2PL0 Copyright (c) Steve Scherf et al.
# Submitted via: ExactAudioCopy v0.99pb5
#
DISCID=18032403
DTITLE=Kool and The Gang feat. J.T. Taylor - Salute To The Ladies (Maxi)
DYEAR=1996
DGENRE=
TTITLE0=Salute To The Ladies
TTITLE1=Crabs In A Barrel
TTITLE2=Reunited
EXTD=
EXTT0=
EXTT1=
EXTT2=
PLAYORDER=
